<svg id="Camada_1" data-name="Camada 1" xmlns="http://www.w3.org/2000/svg" viewBox="0 0 112.01 139.31"><defs><style>.cls-1{fill:transparent;}.cls-2{fill:#fff;}</style></defs><title>icones-02</title><rect class="cls-1" width="112.01" height="139.31" rx="10.67"/><path class="cls-2" d="M56.69,32.26a18.85,18.85,0,0,1,2.44,3.26c4.73,10.51,9.37,21.06,14,31.6.3.67.64,1.33,1.1,2.3L84,62Q90.66,57,97.27,51.88c1.23-1,2.71-2.06,3.91-.62a4.49,4.49,0,0,1,.33,3.78C96.34,68.68,91,82.25,85.8,95.88a3.35,3.35,0,0,1-3.69,2.48q-25.95-.08-51.89,0a3.36,3.36,0,0,1-3.67-2.53c-5-13.16-10.15-26.28-15.25-39.41-.29-.75-.7-1.46-1.05-2.19V51.74c1.63-1.4,3.12-1.34,4.83.08C18.92,55,22.87,58,26.79,61.09,30.47,64,34.17,66.86,38,69.84c5.16-11.64,10.17-23,15.27-34.32a17.88,17.88,0,0,1,2.44-3.26ZM81.48,93.68c4.26-11,8.47-21.9,12.67-32.79-6.39,4.28-12.33,8.81-18.27,13.34-2.87,2.19-3.94,1.92-5.4-1.36Q63.86,58,57.26,43.1c-.28-.64-.64-1.24-1.11-2.16-.59,1.22-1,2.09-1.42,3Q48.15,58.82,41.57,73.71c-1.25,2.82-2.51,3.11-5,1.25-1.39-1.06-2.75-2.16-4.12-3.23L18.58,60.79c3.75,10.77,7.8,21.28,11.94,31.74a2.36,2.36,0,0,0,1.8,1.11c16.3.06,32.59,0,49.16,0"/><path class="cls-2" d="M56.17,107.05H30.48c-1.74,0-3.27-.27-3.28-2.44,0-2,1.33-2.42,3-2.41,8,0,16,0,24,0q14,0,27.94,0c2.26,0,3.41,1.13,3,2.9s-1.77,1.94-3.28,1.94H56.17"/></svg>