<svg id="Camada_1" data-name="Camada 1" xmlns="http://www.w3.org/2000/svg" viewBox="0 0 362.61 166.31"><defs><style>.cls-1{fill:#fff;}.cls-2{fill:#1d1d1b;}.cls-3{fill:#1d1d1b;stroke:#1d1d1b;stroke-miterlimit:10;stroke-width:0.75px;}</style></defs><title>Artboard 2</title><rect class="cls-1" x="125.3" width="112.01" height="139.31" rx="10.67"/><path class="cls-2" d="M182,32.26a18.85,18.85,0,0,1,2.44,3.26c4.73,10.51,9.37,21.06,14,31.6.3.67.64,1.33,1.1,2.3L209.31,62Q216,57,222.57,51.88c1.23-1,2.71-2.06,3.91-.62a4.49,4.49,0,0,1,.33,3.78c-5.17,13.64-10.51,27.21-15.71,40.84a3.35,3.35,0,0,1-3.69,2.48q-25.95-.08-51.89,0a3.36,3.36,0,0,1-3.67-2.53c-5-13.16-10.15-26.28-15.25-39.41-.29-.75-.7-1.46-1-2.19V51.74c1.63-1.4,3.12-1.34,4.83.08,3.84,3.17,7.79,6.19,11.71,9.27,3.68,2.89,7.38,5.77,11.19,8.75,5.16-11.64,10.17-23,15.27-34.32A17.88,17.88,0,0,1,181,32.26Zm24.79,61.42c4.26-11,8.47-21.9,12.67-32.79-6.39,4.28-12.33,8.81-18.27,13.34-2.87,2.19-3.94,1.92-5.4-1.36Q189.17,58,182.56,43.1c-.28-.64-.64-1.24-1.11-2.16-.59,1.22-1,2.09-1.42,3q-6.59,14.89-13.16,29.79c-1.25,2.82-2.51,3.11-5,1.25-1.39-1.06-2.75-2.16-4.12-3.23L143.87,60.79c3.76,10.77,7.81,21.28,11.95,31.74a2.36,2.36,0,0,0,1.8,1.11c16.3.06,32.59,0,49.16,0"/><path class="cls-2" d="M181.47,107.05H155.78c-1.74,0-3.27-.27-3.28-2.44,0-2,1.33-2.42,3-2.41,8,0,16,0,23.95,0q14,0,27.94,0c2.26,0,3.41,1.13,3,2.9s-1.77,1.94-3.28,1.94H181.47"/><rect class="cls-1" width="112.01" height="139.31" rx="10.67"/><path class="cls-2" d="M82.94,82.78a16.46,16.46,0,0,0-13,6.43L44.59,75.07a16.59,16.59,0,0,0,.92-5.43,16.17,16.17,0,0,0-.94-5.45L69.86,50.07a16.45,16.45,0,1,0-3.41-10,16.08,16.08,0,0,0,.94,5.45L42.12,59.63a16.46,16.46,0,1,0,0,20L67.45,93.76a16.46,16.46,0,1,0,15.49-11m0-54a11.31,11.31,0,1,1-11.3,11.31,11.32,11.32,0,0,1,11.3-11.31M29.07,80.94a11.31,11.31,0,1,1,11.31-11.3,11.31,11.31,0,0,1-11.31,11.3m53.87,29.6A11.31,11.31,0,1,1,94.25,99.23a11.32,11.32,0,0,1-11.31,11.31"/><rect class="cls-1" x="250.6" width="112.01" height="139.31" rx="10.67"/><path class="cls-2" d="M352.07,66.65a1,1,0,0,0-.12.23,1.27,1.27,0,0,1-1.47,1.1c-.8-.08-1.13-.69-1.22-1.42-.14-1.08-.16-2.19-.39-3.25-.47-2.28-1.05-4.53-1.58-6.8-.11-.49-.37-.61-.84-.71-3-.63-6.1-1.13-9.06-2-3.57-1.09-6.4-5.14-5.27-9.15a7.22,7.22,0,0,0-.34-4.08c-.37-1.27-.64-2.57-.94-3.86a1.07,1.07,0,0,1,0-.61c.45-1.17-.17-1.71-1.1-2.29a42.77,42.77,0,0,0-43.9-1.34c-.1.06-.19.14-.29.21a11.27,11.27,0,0,0,5.82,1.54c3-.16,6,0,9.06,0a1.27,1.27,0,0,1,1.42,1,1.22,1.22,0,0,1-.71,1.46,1.64,1.64,0,0,1-.76.15c-3.82,0-7.64,0-11.46,0a4.63,4.63,0,0,1-1.61-.42c-1.37-.54-2.71-1.16-4.09-1.7a1.12,1.12,0,0,0-.95,0c-1.92,1.47-3.79,3-5.92,4.7.73.64,1.36,1.09,1.87,1.64a6.42,6.42,0,0,1,1.29,7.68,4,4,0,0,0,0,4,53.07,53.07,0,0,1,2.21,4.92,1.22,1.22,0,0,0,1.37.91c1.56-.06,3.13-.06,4.7,0a2.74,2.74,0,0,1,3,2.36c.66,3,1.32,5.93,2,8.9a1.16,1.16,0,0,0,.84,1q4.4,1.62,8.78,3.3a8.6,8.6,0,0,1,5.83,8.2c0,1.38-.14,2.77-.15,4.16a3.61,3.61,0,0,0,2.62,3.85c1.33.51,2.66,1,4,1.49a2.63,2.63,0,0,1,1.91,2.77c0,1.27,0,2.54,0,3.81a7.12,7.12,0,0,1-.31,1.9,47,47,0,0,1-1.61,4.59c-1,2.21-.81,4.49-.74,6.89,1.52-.33,2.95-.32,4.07-1.74,3.68-4.63,7.52-9.14,11.31-13.68a4.93,4.93,0,0,0,1.16-3.17c0-1,.06-2,.13-2.92a2.29,2.29,0,0,1,1.56-2c1.16-.5,2.31-1,3.47-1.55a3.08,3.08,0,0,0,1.87-2.1,1.32,1.32,0,0,0-1.36-1.84h-1a2.89,2.89,0,0,1-2.86-1.71c-1-2-2.08-3.92-3.05-5.9a4.45,4.45,0,0,0-4.39-2.69c-2.28,0-4.56,0-6.84,0a3.7,3.7,0,0,0-2.45.87c-2.5,2-4.51,2.16-7.29.46-2-1.22-4-2.47-6-3.66a3.13,3.13,0,0,1-1.63-2.93c0-1.36,0-2.72,0-4.08a2.75,2.75,0,0,1,3-3c1.12,0,2.25,0,3.37,0a3,3,0,0,1,2.69,1.43c.29.44.64.84,1,1.33.21-.33.38-.6.53-.87,1.58-2.94,3.2-5.86,4.73-8.83a3.24,3.24,0,0,1,3.27-1.94c.8,0,1.6,0,2.54,0V47.62c0-1.85.52-2.6,2.3-3.3-2.28-1.52-4.51-3-6.75-4.49-.47-.31-1-.59-1.42-.91a11.5,11.5,0,0,0-7.27-2.11,16.49,16.49,0,0,1-1.86,0,1.39,1.39,0,0,1-1.32-1.31,1.36,1.36,0,0,1,1.29-1.34c3.7-.24,7.23.16,10.4,2.38,2.74,1.92,5.58,3.68,8.38,5.5A2.69,2.69,0,0,1,327,44.65,2.53,2.53,0,0,1,324.9,47c-.2.05-.41.47-.42.72,0,1.06,0,2.13,0,3.2,0,2.07-1.07,3.08-3.15,3.09-.91,0-2-.28-2.69.13s-.95,1.51-1.39,2.31l-4,7.42c-1.27,2.33-3.45,2.53-5,.36a2.62,2.62,0,0,0-2.75-1.38,15.44,15.44,0,0,1-2.17,0c0,1.57,0,3.09,0,4.61,0,.17.28.36.46.48,2,1.26,4.07,2.53,6.12,3.77a2.66,2.66,0,0,0,3.51-.22,6.93,6.93,0,0,1,5.06-1.7c2.22.08,4.44,0,6.66,0a6.55,6.55,0,0,1,6.17,3.73c1,1.9,2,3.82,3,5.74a1.18,1.18,0,0,0,1.29.79,4.07,4.07,0,0,1,4.3,5.66,5.28,5.28,0,0,1-2.62,3.11,29.69,29.69,0,0,1-3.14,1.44c-.8.3-1.22.72-1.05,1.62a6.3,6.3,0,0,1,0,1,8.24,8.24,0,0,1-2.31,5.85c-2.83,3.27-5.54,6.63-8.3,10a1.54,1.54,0,0,0-.38.8c.81-.34,1.64-.65,2.44-1A42.88,42.88,0,0,0,345.3,87.9a39.28,39.28,0,0,0,3.77-13.39c0-.38.12-.76.16-1.14.11-1.2.43-1.67,1.22-1.78,1-.15,1.33.54,1.62,1.27V73c-.06.23-.13.45-.17.68-.27,1.83-.42,3.7-.81,5.51a44.78,44.78,0,0,1-15.93,25.86,44.08,44.08,0,0,1-20.56,9.33c-1.59.28-3.2.48-4.8.71h-6.21a4.22,4.22,0,0,0-.77-.16,42,42,0,0,1-9.8-1.9,45.08,45.08,0,0,1-25-19.53,42.84,42.84,0,0,1-6.3-17.61c-.23-1.85-.35-3.7-.53-5.55V69.13a13.15,13.15,0,0,0,.16-1.39,40.09,40.09,0,0,1,1.29-9.19A44.28,44.28,0,0,1,280,33a45.89,45.89,0,0,1,19.61-8.16,43.33,43.33,0,0,1,13.78-.11,44.32,44.32,0,0,1,20.27,8.55,44.76,44.76,0,0,1,17.66,28.44c.3,1.58.48,3.2.71,4.8Zm-41,45.51c0-.36,0-.68,0-1a16.81,16.81,0,0,1,1.5-8.53,15.12,15.12,0,0,0,1.31-7.5c0-.51-.14-.78-.65-1-1.28-.44-2.56-.9-3.82-1.42A6.08,6.08,0,0,1,305.33,87a25.38,25.38,0,0,1,.08-3.9,6,6,0,0,0-4.12-6.46c-3-1.08-6-2.28-9-3.4a2.94,2.94,0,0,1-2.07-2.32c-.08-.43-.19-.86-.28-1.3-.61-2.75-1.22-5.5-1.83-8.28-1.88,0-3.68,0-5.48,0a3,3,0,0,1-3.06-2A57.14,57.14,0,0,0,277,53.79a5.55,5.55,0,0,1,0-6.13,3.67,3.67,0,0,0-.4-4.32,23.5,23.5,0,0,0-1.81-1.93,42.62,42.62,0,0,0,36.28,70.75m22.65-75.45-.23.1c.28,1,.52,2,.86,2.92a10,10,0,0,1,.37,5.73A4.44,4.44,0,0,0,336.29,50a6.83,6.83,0,0,0,3.38,1.61c2.06.41,4.1.93,6.32,1.44a43.09,43.09,0,0,0-12.27-16.33"/><path class="cls-3" d="M352.07,66.65a1,1,0,0,0-.12.23,1.27,1.27,0,0,1-1.47,1.1c-.8-.08-1.13-.69-1.22-1.42-.14-1.08-.16-2.19-.39-3.25-.47-2.28-1.05-4.53-1.58-6.8-.11-.49-.37-.61-.84-.71-3-.63-6.1-1.13-9.06-2-3.57-1.09-6.4-5.14-5.27-9.15a7.22,7.22,0,0,0-.34-4.08c-.37-1.27-.64-2.57-.94-3.86a1.07,1.07,0,0,1,0-.61c.45-1.17-.17-1.71-1.1-2.29a42.77,42.77,0,0,0-43.9-1.34c-.1.06-.19.14-.29.21a11.27,11.27,0,0,0,5.82,1.54c3-.16,6,0,9.06,0a1.27,1.27,0,0,1,1.42,1,1.22,1.22,0,0,1-.71,1.46,1.64,1.64,0,0,1-.76.15c-3.82,0-7.64,0-11.46,0a4.63,4.63,0,0,1-1.61-.42c-1.37-.54-2.71-1.16-4.09-1.7a1.12,1.12,0,0,0-.95,0c-1.92,1.47-3.79,3-5.92,4.7.73.64,1.36,1.09,1.87,1.64a6.42,6.42,0,0,1,1.29,7.68,4,4,0,0,0,0,4,53.07,53.07,0,0,1,2.21,4.92,1.22,1.22,0,0,0,1.37.91c1.56-.06,3.13-.06,4.7,0a2.74,2.74,0,0,1,3,2.36c.66,3,1.32,5.93,2,8.9a1.16,1.16,0,0,0,.84,1q4.4,1.62,8.78,3.3a8.6,8.6,0,0,1,5.83,8.2c0,1.38-.14,2.77-.15,4.16a3.61,3.61,0,0,0,2.62,3.85c1.33.51,2.66,1,4,1.49a2.63,2.63,0,0,1,1.91,2.77c0,1.27,0,2.54,0,3.81a7.12,7.12,0,0,1-.31,1.9,47,47,0,0,1-1.61,4.59c-1,2.21-.81,4.49-.74,6.89,1.52-.33,2.95-.32,4.07-1.74,3.68-4.63,7.52-9.14,11.31-13.68a4.93,4.93,0,0,0,1.16-3.17c0-1,.06-2,.13-2.92a2.29,2.29,0,0,1,1.56-2c1.16-.5,2.31-1,3.47-1.55a3.08,3.08,0,0,0,1.87-2.1,1.32,1.32,0,0,0-1.36-1.84h-1a2.89,2.89,0,0,1-2.86-1.71c-1-2-2.08-3.92-3.05-5.9a4.45,4.45,0,0,0-4.39-2.69c-2.28,0-4.56,0-6.84,0a3.7,3.7,0,0,0-2.45.87c-2.5,2-4.51,2.16-7.29.46-2-1.22-4-2.47-6-3.66a3.13,3.13,0,0,1-1.63-2.93c0-1.36,0-2.72,0-4.08a2.75,2.75,0,0,1,3-3c1.12,0,2.25,0,3.37,0a3,3,0,0,1,2.69,1.43c.29.44.64.84,1,1.33.21-.33.38-.6.53-.87,1.58-2.94,3.2-5.86,4.73-8.83a3.24,3.24,0,0,1,3.27-1.94c.8,0,1.6,0,2.54,0V47.62c0-1.85.52-2.6,2.3-3.3-2.28-1.52-4.51-3-6.75-4.49-.47-.31-1-.59-1.42-.91a11.5,11.5,0,0,0-7.27-2.11,16.49,16.49,0,0,1-1.86,0,1.39,1.39,0,0,1-1.32-1.31,1.36,1.36,0,0,1,1.29-1.34c3.7-.24,7.23.16,10.4,2.38,2.74,1.92,5.58,3.68,8.38,5.5A2.69,2.69,0,0,1,327,44.65,2.53,2.53,0,0,1,324.9,47c-.2.05-.41.47-.42.72,0,1.06,0,2.13,0,3.2,0,2.07-1.07,3.08-3.15,3.09-.91,0-2-.28-2.69.13s-.95,1.51-1.39,2.31l-4,7.42c-1.27,2.33-3.45,2.53-5,.36a2.62,2.62,0,0,0-2.75-1.38,15.44,15.44,0,0,1-2.17,0c0,1.57,0,3.09,0,4.61,0,.17.28.36.46.48,2,1.26,4.07,2.53,6.12,3.77a2.66,2.66,0,0,0,3.51-.22,6.93,6.93,0,0,1,5.06-1.7c2.22.08,4.44,0,6.66,0a6.55,6.55,0,0,1,6.17,3.73c1,1.9,2,3.82,3,5.74a1.18,1.18,0,0,0,1.29.79,4.07,4.07,0,0,1,4.3,5.66,5.28,5.28,0,0,1-2.62,3.11,29.69,29.69,0,0,1-3.14,1.44c-.8.3-1.22.72-1.05,1.62a6.3,6.3,0,0,1,0,1,8.24,8.24,0,0,1-2.31,5.85c-2.83,3.27-5.54,6.63-8.3,10a1.54,1.54,0,0,0-.38.8c.81-.34,1.64-.65,2.44-1A42.88,42.88,0,0,0,345.3,87.9a39.28,39.28,0,0,0,3.77-13.39c0-.38.12-.76.16-1.14.11-1.2.43-1.67,1.22-1.78,1-.15,1.33.54,1.62,1.27V73c-.06.23-.13.45-.17.68-.27,1.83-.42,3.7-.81,5.51a44.78,44.78,0,0,1-15.93,25.86,44.08,44.08,0,0,1-20.56,9.33c-1.59.28-3.2.48-4.8.71h-6.21a4.22,4.22,0,0,0-.77-.16,42,42,0,0,1-9.8-1.9,45.08,45.08,0,0,1-25-19.53,42.84,42.84,0,0,1-6.3-17.61c-.23-1.85-.35-3.7-.53-5.55V69.13a13.15,13.15,0,0,0,.16-1.39,40.09,40.09,0,0,1,1.29-9.19A44.28,44.28,0,0,1,280,33a45.89,45.89,0,0,1,19.61-8.16,43.33,43.33,0,0,1,13.78-.11,44.32,44.32,0,0,1,20.27,8.55,44.76,44.76,0,0,1,17.66,28.44c.3,1.58.48,3.2.71,4.8Zm-41,45.51c0-.36,0-.68,0-1a16.81,16.81,0,0,1,1.5-8.53,15.12,15.12,0,0,0,1.31-7.5c0-.51-.14-.78-.65-1-1.28-.44-2.56-.9-3.82-1.42A6.08,6.08,0,0,1,305.33,87a25.38,25.38,0,0,1,.08-3.9,6,6,0,0,0-4.12-6.46c-3-1.08-6-2.28-9-3.4a2.94,2.94,0,0,1-2.07-2.32c-.08-.43-.19-.86-.28-1.3-.61-2.75-1.22-5.5-1.83-8.28-1.88,0-3.68,0-5.48,0a3,3,0,0,1-3.06-2A57.14,57.14,0,0,0,277,53.79a5.55,5.55,0,0,1,0-6.13,3.67,3.67,0,0,0-.4-4.32,23.5,23.5,0,0,0-1.81-1.93,42.62,42.62,0,0,0,36.28,70.75Zm22.65-75.45-.23.1c.28,1,.52,2,.86,2.92a10,10,0,0,1,.37,5.73A4.44,4.44,0,0,0,336.29,50a6.83,6.83,0,0,0,3.38,1.61c2.06.41,4.1.93,6.32,1.44A43.09,43.09,0,0,0,333.72,36.71Z"/><path class="cls-2" d="M54.76,162.27l-4.06.63-.2-.18v-1.43l4.08-.61.18.19Z"/><path class="cls-2" d="M66.76,155.55l-.38,2-.35.13a5.42,5.42,0,0,0-1.2-.65,3.2,3.2,0,0,0-1.13-.23,1.6,1.6,0,0,0-1.1.36,1.12,1.12,0,0,0-.41.85.93.93,0,0,0,.17.53,1.51,1.51,0,0,0,.44.43,5.41,5.41,0,0,0,.64.37l.77.37.8.4a5,5,0,0,1,1.41,1.06,2.11,2.11,0,0,1,.44.76,2.69,2.69,0,0,1,.17,1,3,3,0,0,1-.3,1.32,3.23,3.23,0,0,1-.82,1.09,4.13,4.13,0,0,1-1.31.73,5.2,5.2,0,0,1-1.71.26,8.31,8.31,0,0,1-3.28-.7l.33-2.16.26-.13a4.9,4.9,0,0,0,1.49.91,4.15,4.15,0,0,0,1.45.32,1.7,1.7,0,0,0,1.18-.37,1.13,1.13,0,0,0,.42-.88,1,1,0,0,0-.17-.55,1.71,1.71,0,0,0-.44-.45,5.41,5.41,0,0,0-.64-.38l-.76-.36-.81-.39a5.35,5.35,0,0,1-.76-.47,4,4,0,0,1-.64-.58,2.29,2.29,0,0,1-.45-.76,2.69,2.69,0,0,1-.16-1,3.09,3.09,0,0,1,.3-1.34A3.23,3.23,0,0,1,61,156a3.81,3.81,0,0,1,1.29-.71A4.92,4.92,0,0,1,64,155,7.18,7.18,0,0,1,66.76,155.55Z"/><path class="cls-2" d="M82,166.14H79.64l.14-3.28,0-1.29-2.49,0-2.24.06,0,1.06.1,3.49H72.78l.11-3.28-.11-7.74h2.36l-.08,4.54,2.36,0,2.3,0-.08-4.54H82l-.14,7.53Z"/><path class="cls-2" d="M94.82,166.14l-.26-1.43-.29-1-2.16-.05-1.9.05-.29.91-.29,1.55h-2.3l3.73-11h2.76l3.38,11Zm-2.35-8.85h-.16l-1.5,4.59,1.47,0,1.48,0Z"/><path class="cls-2" d="M111.08,165.59l0,.26a8.18,8.18,0,0,1-2.27.46l-.24-.18c-.79-1.36-1.46-2.59-2-3.7h-1.66v.22l.1,3.49h-2.32l.11-3.28-.11-7.74,4.22,0a3.84,3.84,0,0,1,2.67.85,3.08,3.08,0,0,1,.95,2.42,3.61,3.61,0,0,1-.54,1.94,4.24,4.24,0,0,1-1.52,1.45C109.29,163.13,110.18,164.41,111.08,165.59Zm-4.48-4.89a2,2,0,0,0,1.45-2.1,1.69,1.69,0,0,0-.47-1.32,2.21,2.21,0,0,0-1.44-.47l-1.17.07-.07,3.76Z"/><path class="cls-2" d="M118.91,166.14h-2.32l.11-3.28-.11-7.74h2.35l-.13,7.53Z"/><path class="cls-2" d="M134.66,166.14h-2.5l-4.49-7.46h-.14l0,3.66.09,3.8h-2.12l.11-3.25-.1-7.77H128l4.49,7.46h.15l-.06-7.37,2.15-.13-.14,7.65Z"/><path class="cls-2" d="M149.33,155.65l-.51,2.08-.22.05a7,7,0,0,0-1.5-.7,4.34,4.34,0,0,0-1.41-.22,3.14,3.14,0,0,0-1.66.39,2.31,2.31,0,0,0-.95,1.24,6.69,6.69,0,0,0-.32,2.26,6.45,6.45,0,0,0,.3,2.18,2.14,2.14,0,0,0,.93,1.17,3.38,3.38,0,0,0,1.68.36,5.32,5.32,0,0,0,1.46-.23l0-.95,0-1.69,2.14-.17-.06,1.51.06,2.69a12.13,12.13,0,0,1-3.78.67,5,5,0,0,1-3.87-1.4,5.71,5.71,0,0,1-1.29-4,6,6,0,0,1,1.49-4.38,5.77,5.77,0,0,1,4.26-1.51A7.65,7.65,0,0,1,149.33,155.65Z"/><path class="cls-2" d="M168.56,157l-2.08-.1h-.68l-.08,5.72.1,3.49H163.5l.11-3.28-.08-5.93h-.69l-2.11.1-.15-.18.15-1.73h7.83l.13.19Z"/><path class="cls-2" d="M183.33,166.14H181l.14-3.28,0-1.29-2.5,0-2.24.06,0,1.06.1,3.49h-2.32l.11-3.28-.11-7.74h2.36l-.08,4.54,2.36,0,2.31,0-.09-4.54h2.38l-.14,7.53Z"/><path class="cls-2" d="M197,164.41l-.16,1.73h-6.92l.12-3.28-.12-7.74h7l.14.19-.17,1.72-2.64-.08h-2l0,2.66,1.89,0,1.8,0,.14.16-.15,1.73-2-.05-1.76,0v1.18l.05,1.66,1.93,0,2.72-.1Z"/><path class="cls-2" d="M213.42,160.32c1.33,1.86,2.74,3.65,4.22,5.35l0,.25a17.23,17.23,0,0,1-2.27.39l-.27-.14c-1.62-2.17-2.94-4.07-4-5.7l0,2.18.09,3.49H208.8l.14-3.28-.14-7.74h2.36l-.08,5.11,3.09-4,.62-1.06h2.53Z"/><path class="cls-2" d="M225,166.14h-2.32l.11-3.28-.11-7.74H225l-.14,7.53Z"/><path class="cls-2" d="M240.76,166.14h-2.5l-4.49-7.46h-.15l0,3.66.1,3.8h-2.12l.11-3.25-.1-7.77h2.5l4.49,7.46h.15l-.07-7.37,2.16-.13-.15,7.65Z"/><path class="cls-2" d="M255.44,155.65l-.51,2.08-.21.05a7,7,0,0,0-1.51-.7,4.3,4.3,0,0,0-1.41-.22,3.1,3.1,0,0,0-1.65.39,2.33,2.33,0,0,0-1,1.24,8.11,8.11,0,0,0,0,4.44,2.14,2.14,0,0,0,.93,1.17,3.42,3.42,0,0,0,1.69.36,5.25,5.25,0,0,0,1.45-.23l0-.95,0-1.69,2.14-.17,0,1.51,0,2.69a12.08,12.08,0,0,1-3.78.67,5,5,0,0,1-3.86-1.4,5.67,5.67,0,0,1-1.3-4,6,6,0,0,1,1.5-4.38,5.73,5.73,0,0,1,4.25-1.51A7.62,7.62,0,0,1,255.44,155.65Z"/><path class="cls-2" d="M265.79,155.05a4.88,4.88,0,0,1,3.69,1.33,5.34,5.34,0,0,1,1.28,3.83,6.39,6.39,0,0,1-1.44,4.49,5.28,5.28,0,0,1-4.1,1.56c-1.25,0-2.54,0-3.85-.12l.11-3.28-.11-7.74Zm2.55,5.7a5.09,5.09,0,0,0-.66-2.93,2.34,2.34,0,0,0-2.05-.93c-.61,0-1.26,0-1.94.09l-.1,5.67.05,1.69c.8.08,1.46.12,2,.12C267.44,164.46,268.34,163.23,268.34,160.75Z"/><path class="cls-2" d="M284.37,156.38a5.82,5.82,0,0,1,1.26,4,6.4,6.4,0,0,1-1.36,4.38,4.9,4.9,0,0,1-3.86,1.54,4.49,4.49,0,0,1-3.59-1.45,6,6,0,0,1-1.27-4.09,6.16,6.16,0,0,1,1.37-4.29,4.92,4.92,0,0,1,3.86-1.51A4.57,4.57,0,0,1,284.37,156.38Zm-5.78,1.32a4.77,4.77,0,0,0-.62,2.76,8,8,0,0,0,.28,2.36,2.23,2.23,0,0,0,.83,1.29,2.54,2.54,0,0,0,1.5.41,2.31,2.31,0,0,0,2-.86,5,5,0,0,0,.62-2.81,7.75,7.75,0,0,0-.28-2.33,2.33,2.33,0,0,0-.84-1.28,2.62,2.62,0,0,0-1.51-.39A2.27,2.27,0,0,0,278.59,157.7Z"/><path class="cls-2" d="M300.69,166.14l-.17-3.33-.39-4.25H300L297.49,165h-1.8l-2.24-6.42h-.16l-.42,4-.23,3.56h-2l1.11-11h2.67l.45,1.62,1.75,5.22h.15l1.83-5.22.49-1.62h2.63l1,11Z"/><path class="cls-2" d="M312.12,162.27l-4.07.63-.2-.18v-1.43l4.08-.61.19.19Z"/></svg>