<svg id="Camada_1" data-name="Camada 1" xmlns="http://www.w3.org/2000/svg" viewBox="0 0 362.61 139.31"><defs><style>.cls-1{fill:transparent;}.cls-2{fill:#1d1d1b;}.cls-3{fill:#1d1d1b;stroke:#1d1d1b;stroke-miterlimit:10;stroke-width:0.75px;}</style></defs><title>icones-full-semtexto</title><rect class="cls-1" x="125.3" width="112.01" height="139.31" rx="10.67"/><path class="cls-2" d="M182,32.26a18.29,18.29,0,0,1,2.43,3.26c4.74,10.51,9.37,21.06,14,31.6.3.67.64,1.33,1.1,2.3L209.31,62Q216,57,222.57,51.88c1.23-1,2.71-2.06,3.91-.62a4.49,4.49,0,0,1,.33,3.78c-5.17,13.64-10.51,27.21-15.71,40.84a3.36,3.36,0,0,1-3.7,2.48q-25.93-.08-51.89,0a3.36,3.36,0,0,1-3.66-2.53c-5-13.16-10.15-26.28-15.25-39.41-.29-.75-.7-1.46-1-2.19V51.74c1.63-1.4,3.12-1.34,4.83.08,3.83,3.17,7.79,6.19,11.71,9.27,3.68,2.89,7.38,5.77,11.19,8.75,5.16-11.64,10.17-23,15.27-34.32A17.88,17.88,0,0,1,181,32.26Zm24.79,61.42c4.26-11,8.47-21.9,12.67-32.79-6.39,4.28-12.33,8.81-18.27,13.34-2.87,2.19-3.94,1.92-5.4-1.36Q189.17,58,182.56,43.1c-.29-.64-.64-1.24-1.12-2.16-.58,1.22-1,2.09-1.41,3q-6.59,14.89-13.16,29.79c-1.25,2.82-2.51,3.11-5,1.25-1.39-1.06-2.75-2.16-4.12-3.23L143.87,60.79c3.76,10.77,7.81,21.28,11.95,31.74a2.36,2.36,0,0,0,1.8,1.11c16.3.06,32.59,0,49.16,0"/><path class="cls-2" d="M181.47,107.05H155.78c-1.74,0-3.27-.27-3.28-2.44,0-2,1.32-2.42,3-2.41,8,0,16,0,23.95,0q14,0,27.94,0c2.25,0,3.4,1.13,3,2.9s-1.77,1.94-3.28,1.94H181.47"/><rect class="cls-1" width="112.01" height="139.31" rx="10.67"/><path class="cls-2" d="M82.94,82.78a16.46,16.46,0,0,0-13,6.43L44.59,75.07a16.59,16.59,0,0,0,.91-5.43,16.16,16.16,0,0,0-.93-5.45L69.86,50.07a16.45,16.45,0,1,0-3.41-10,16.08,16.08,0,0,0,.94,5.45L42.12,59.63a16.46,16.46,0,1,0,0,20L67.45,93.76a16.21,16.21,0,0,0-1,5.49A16.47,16.47,0,1,0,82.94,82.78m0-54a11.31,11.31,0,1,1-11.3,11.31,11.32,11.32,0,0,1,11.3-11.31M29.07,80.94a11.31,11.31,0,1,1,11.31-11.3,11.31,11.31,0,0,1-11.31,11.3m53.87,29.6A11.31,11.31,0,1,1,94.25,99.23a11.32,11.32,0,0,1-11.31,11.31"/><rect class="cls-1" x="250.6" width="112.01" height="139.31" rx="10.67"/><path class="cls-2" d="M352.07,66.65a1,1,0,0,0-.12.23,1.27,1.27,0,0,1-1.47,1.1c-.8-.08-1.13-.69-1.22-1.42-.14-1.08-.16-2.19-.39-3.25-.47-2.28-1.06-4.53-1.58-6.8-.11-.49-.37-.61-.84-.71-3-.63-6.11-1.13-9.06-2-3.57-1.09-6.4-5.14-5.27-9.15a7.22,7.22,0,0,0-.34-4.08c-.37-1.27-.64-2.57-.94-3.86a1.07,1.07,0,0,1,0-.61c.45-1.17-.17-1.71-1.1-2.29a42.77,42.77,0,0,0-43.9-1.34c-.1.06-.19.14-.29.21a11.24,11.24,0,0,0,5.82,1.54c3-.16,6,0,9.06,0a1.27,1.27,0,0,1,1.42,1,1.22,1.22,0,0,1-.71,1.46,1.66,1.66,0,0,1-.77.15c-3.82,0-7.63,0-11.45,0a4.63,4.63,0,0,1-1.61-.42c-1.37-.54-2.71-1.16-4.09-1.7a1.12,1.12,0,0,0-.95,0c-1.92,1.47-3.79,3-5.92,4.7.73.64,1.36,1.09,1.87,1.64a6.42,6.42,0,0,1,1.29,7.68,4,4,0,0,0,0,4,48.26,48.26,0,0,1,2.21,4.92,1.23,1.23,0,0,0,1.37.91c1.57-.06,3.14-.06,4.71,0a2.75,2.75,0,0,1,3,2.36c.66,3,1.32,5.93,2,8.9a1.14,1.14,0,0,0,.84,1q4.4,1.62,8.78,3.3a8.61,8.61,0,0,1,5.83,8.2c0,1.38-.14,2.77-.15,4.16a3.61,3.61,0,0,0,2.62,3.85c1.32.51,2.66,1,4,1.49a2.63,2.63,0,0,1,1.91,2.77c0,1.27,0,2.54,0,3.81a7.12,7.12,0,0,1-.31,1.9,47,47,0,0,1-1.61,4.59c-1,2.21-.81,4.49-.74,6.89,1.52-.33,2.95-.32,4.07-1.74,3.68-4.63,7.52-9.14,11.3-13.68a4.89,4.89,0,0,0,1.17-3.17c0-1,0-2,.13-2.92a2.29,2.29,0,0,1,1.56-2c1.16-.5,2.31-1,3.47-1.55a3.08,3.08,0,0,0,1.87-2.1,1.32,1.32,0,0,0-1.36-1.84h-1a2.89,2.89,0,0,1-2.86-1.71c-1-2-2.08-3.92-3.05-5.9a4.45,4.45,0,0,0-4.4-2.69c-2.27,0-4.55,0-6.83,0a3.68,3.68,0,0,0-2.45.87c-2.5,2-4.51,2.16-7.29.46-2-1.22-4-2.47-6-3.66a3.13,3.13,0,0,1-1.63-2.93c0-1.36,0-2.72,0-4.08a2.75,2.75,0,0,1,2.95-3c1.13,0,2.25,0,3.38,0a3,3,0,0,1,2.69,1.43c.29.44.64.84,1,1.33.21-.33.38-.6.53-.87,1.58-2.94,3.2-5.86,4.73-8.83a3.24,3.24,0,0,1,3.27-1.94c.8,0,1.6,0,2.54,0V47.62c0-1.85.52-2.6,2.3-3.3-2.28-1.52-4.51-3-6.75-4.49-.47-.31-1-.59-1.42-.91a11.5,11.5,0,0,0-7.27-2.11,16.49,16.49,0,0,1-1.86,0,1.39,1.39,0,0,1-1.32-1.31,1.36,1.36,0,0,1,1.29-1.34c3.7-.24,7.23.16,10.4,2.38,2.74,1.92,5.58,3.68,8.38,5.5A2.69,2.69,0,0,1,327,44.65,2.54,2.54,0,0,1,324.9,47c-.2.05-.41.47-.42.72-.05,1.06,0,2.13,0,3.2,0,2.07-1.07,3.08-3.15,3.09-.92,0-2-.28-2.7.13s-.94,1.51-1.38,2.31c-1.33,2.48-2.65,4.95-4,7.42s-3.44,2.53-4.95.36a2.62,2.62,0,0,0-2.75-1.38,15.44,15.44,0,0,1-2.17,0c0,1.57,0,3.09,0,4.61,0,.17.28.36.46.48,2,1.26,4.07,2.53,6.12,3.77a2.66,2.66,0,0,0,3.51-.22,6.93,6.93,0,0,1,5.06-1.7c2.22.08,4.44,0,6.66,0a6.55,6.55,0,0,1,6.17,3.73c1,1.9,2,3.82,3,5.74a1.17,1.17,0,0,0,1.29.79,4.07,4.07,0,0,1,4.3,5.66,5.28,5.28,0,0,1-2.62,3.11,29.69,29.69,0,0,1-3.14,1.44c-.8.3-1.22.72-1.05,1.62a6.3,6.3,0,0,1,0,1,8.2,8.2,0,0,1-2.32,5.85c-2.82,3.27-5.53,6.63-8.29,10a1.54,1.54,0,0,0-.38.8c.81-.34,1.64-.65,2.44-1A42.88,42.88,0,0,0,345.3,87.9a39.28,39.28,0,0,0,3.77-13.39c0-.38.12-.76.16-1.14.11-1.2.43-1.67,1.22-1.78,1-.15,1.32.54,1.62,1.27V73a5.63,5.63,0,0,0-.17.68c-.27,1.83-.42,3.7-.82,5.51a44.68,44.68,0,0,1-15.93,25.86,44,44,0,0,1-20.55,9.33c-1.59.28-3.2.48-4.8.71h-6.21a4.22,4.22,0,0,0-.77-.16,42,42,0,0,1-9.8-1.9,45.08,45.08,0,0,1-25-19.53,42.69,42.69,0,0,1-6.3-17.61c-.23-1.85-.36-3.7-.53-5.55V69.13a13.15,13.15,0,0,0,.16-1.39,40.09,40.09,0,0,1,1.29-9.19A44.28,44.28,0,0,1,280,33a45.89,45.89,0,0,1,19.61-8.16,43.33,43.33,0,0,1,13.78-.11,44.32,44.32,0,0,1,20.27,8.55,44.76,44.76,0,0,1,17.66,28.44c.3,1.58.47,3.2.71,4.8Zm-41,45.51c0-.36,0-.68,0-1a16.81,16.81,0,0,1,1.5-8.53,15.12,15.12,0,0,0,1.31-7.5c0-.51-.14-.78-.65-1-1.28-.44-2.56-.9-3.82-1.42A6.08,6.08,0,0,1,305.33,87a26.71,26.71,0,0,1,.07-3.9,6,6,0,0,0-4.11-6.46c-3-1.08-6-2.28-9-3.4a2.94,2.94,0,0,1-2.07-2.32c-.08-.43-.19-.86-.28-1.3-.61-2.75-1.22-5.5-1.83-8.28-1.88,0-3.68,0-5.49,0a3,3,0,0,1-3-2A57.14,57.14,0,0,0,277,53.79a5.53,5.53,0,0,1,0-6.13,3.67,3.67,0,0,0-.4-4.32,22,22,0,0,0-1.82-1.93,42.62,42.62,0,0,0,36.29,70.75m22.65-75.45-.23.1c.28,1,.52,2,.86,2.92a10,10,0,0,1,.37,5.73A4.44,4.44,0,0,0,336.29,50a6.83,6.83,0,0,0,3.38,1.61c2.06.41,4.1.93,6.32,1.44a43.09,43.09,0,0,0-12.27-16.33"/><path class="cls-3" d="M352.07,66.65a1,1,0,0,0-.12.23,1.27,1.27,0,0,1-1.47,1.1c-.8-.08-1.13-.69-1.22-1.42-.14-1.08-.16-2.19-.39-3.25-.47-2.28-1.06-4.53-1.58-6.8-.11-.49-.37-.61-.84-.71-3-.63-6.11-1.13-9.06-2-3.57-1.09-6.4-5.14-5.27-9.15a7.22,7.22,0,0,0-.34-4.08c-.37-1.27-.64-2.57-.94-3.86a1.07,1.07,0,0,1,0-.61c.45-1.17-.17-1.71-1.1-2.29a42.77,42.77,0,0,0-43.9-1.34c-.1.06-.19.14-.29.21a11.24,11.24,0,0,0,5.82,1.54c3-.16,6,0,9.06,0a1.27,1.27,0,0,1,1.42,1,1.22,1.22,0,0,1-.71,1.46,1.66,1.66,0,0,1-.77.15c-3.82,0-7.63,0-11.45,0a4.63,4.63,0,0,1-1.61-.42c-1.37-.54-2.71-1.16-4.09-1.7a1.12,1.12,0,0,0-.95,0c-1.92,1.47-3.79,3-5.92,4.7.73.64,1.36,1.09,1.87,1.64a6.42,6.42,0,0,1,1.29,7.68,4,4,0,0,0,0,4,48.26,48.26,0,0,1,2.21,4.92,1.23,1.23,0,0,0,1.37.91c1.57-.06,3.14-.06,4.71,0a2.75,2.75,0,0,1,3,2.36c.66,3,1.32,5.93,2,8.9a1.14,1.14,0,0,0,.84,1q4.4,1.62,8.78,3.3a8.61,8.61,0,0,1,5.83,8.2c0,1.38-.14,2.77-.15,4.16a3.61,3.61,0,0,0,2.62,3.85c1.32.51,2.66,1,4,1.49a2.63,2.63,0,0,1,1.91,2.77c0,1.27,0,2.54,0,3.81a7.12,7.12,0,0,1-.31,1.9,47,47,0,0,1-1.61,4.59c-1,2.21-.81,4.49-.74,6.89,1.52-.33,2.95-.32,4.07-1.74,3.68-4.63,7.52-9.14,11.3-13.68a4.89,4.89,0,0,0,1.17-3.17c0-1,0-2,.13-2.92a2.29,2.29,0,0,1,1.56-2c1.16-.5,2.31-1,3.47-1.55a3.08,3.08,0,0,0,1.87-2.1,1.32,1.32,0,0,0-1.36-1.84h-1a2.89,2.89,0,0,1-2.86-1.71c-1-2-2.08-3.92-3.05-5.9a4.45,4.45,0,0,0-4.4-2.69c-2.27,0-4.55,0-6.83,0a3.68,3.68,0,0,0-2.45.87c-2.5,2-4.51,2.16-7.29.46-2-1.22-4-2.47-6-3.66a3.13,3.13,0,0,1-1.63-2.93c0-1.36,0-2.72,0-4.08a2.75,2.75,0,0,1,2.95-3c1.13,0,2.25,0,3.38,0a3,3,0,0,1,2.69,1.43c.29.44.64.84,1,1.33.21-.33.38-.6.53-.87,1.58-2.94,3.2-5.86,4.73-8.83a3.24,3.24,0,0,1,3.27-1.94c.8,0,1.6,0,2.54,0V47.62c0-1.85.52-2.6,2.3-3.3-2.28-1.52-4.51-3-6.75-4.49-.47-.31-1-.59-1.42-.91a11.5,11.5,0,0,0-7.27-2.11,16.49,16.49,0,0,1-1.86,0,1.39,1.39,0,0,1-1.32-1.31,1.36,1.36,0,0,1,1.29-1.34c3.7-.24,7.23.16,10.4,2.38,2.74,1.92,5.58,3.68,8.38,5.5A2.69,2.69,0,0,1,327,44.65,2.54,2.54,0,0,1,324.9,47c-.2.05-.41.47-.42.72-.05,1.06,0,2.13,0,3.2,0,2.07-1.07,3.08-3.15,3.09-.92,0-2-.28-2.7.13s-.94,1.51-1.38,2.31c-1.33,2.48-2.65,4.95-4,7.42s-3.44,2.53-4.95.36a2.62,2.62,0,0,0-2.75-1.38,15.44,15.44,0,0,1-2.17,0c0,1.57,0,3.09,0,4.61,0,.17.28.36.46.48,2,1.26,4.07,2.53,6.12,3.77a2.66,2.66,0,0,0,3.51-.22,6.93,6.93,0,0,1,5.06-1.7c2.22.08,4.44,0,6.66,0a6.55,6.55,0,0,1,6.17,3.73c1,1.9,2,3.82,3,5.74a1.17,1.17,0,0,0,1.29.79,4.07,4.07,0,0,1,4.3,5.66,5.28,5.28,0,0,1-2.62,3.11,29.69,29.69,0,0,1-3.14,1.44c-.8.3-1.22.72-1.05,1.62a6.3,6.3,0,0,1,0,1,8.2,8.2,0,0,1-2.32,5.85c-2.82,3.27-5.53,6.63-8.29,10a1.54,1.54,0,0,0-.38.8c.81-.34,1.64-.65,2.44-1A42.88,42.88,0,0,0,345.3,87.9a39.28,39.28,0,0,0,3.77-13.39c0-.38.12-.76.16-1.14.11-1.2.43-1.67,1.22-1.78,1-.15,1.32.54,1.62,1.27V73a5.63,5.63,0,0,0-.17.68c-.27,1.83-.42,3.7-.82,5.51a44.68,44.68,0,0,1-15.93,25.86,44,44,0,0,1-20.55,9.33c-1.59.28-3.2.48-4.8.71h-6.21a4.22,4.22,0,0,0-.77-.16,42,42,0,0,1-9.8-1.9,45.08,45.08,0,0,1-25-19.53,42.69,42.69,0,0,1-6.3-17.61c-.23-1.85-.36-3.7-.53-5.55V69.13a13.15,13.15,0,0,0,.16-1.39,40.09,40.09,0,0,1,1.29-9.19A44.28,44.28,0,0,1,280,33a45.89,45.89,0,0,1,19.61-8.16,43.33,43.33,0,0,1,13.78-.11,44.32,44.32,0,0,1,20.27,8.55,44.76,44.76,0,0,1,17.66,28.44c.3,1.58.47,3.2.71,4.8Zm-41,45.51c0-.36,0-.68,0-1a16.81,16.81,0,0,1,1.5-8.53,15.12,15.12,0,0,0,1.31-7.5c0-.51-.14-.78-.65-1-1.28-.44-2.56-.9-3.82-1.42A6.08,6.08,0,0,1,305.33,87a26.71,26.71,0,0,1,.07-3.9,6,6,0,0,0-4.11-6.46c-3-1.08-6-2.28-9-3.4a2.94,2.94,0,0,1-2.07-2.32c-.08-.43-.19-.86-.28-1.3-.61-2.75-1.22-5.5-1.83-8.28-1.88,0-3.68,0-5.49,0a3,3,0,0,1-3-2A57.14,57.14,0,0,0,277,53.79a5.53,5.53,0,0,1,0-6.13,3.67,3.67,0,0,0-.4-4.32,22,22,0,0,0-1.82-1.93,42.62,42.62,0,0,0,36.29,70.75Zm22.65-75.45-.23.1c.28,1,.52,2,.86,2.92a10,10,0,0,1,.37,5.73A4.44,4.44,0,0,0,336.29,50a6.83,6.83,0,0,0,3.38,1.61c2.06.41,4.1.93,6.32,1.44A43.09,43.09,0,0,0,333.72,36.71Z"/></svg>