<svg id="Camada_1" data-name="Camada 1" xmlns="http://www.w3.org/2000/svg" viewBox="0 0 178.37 145.66"><defs><style>.cls-1{fill:#1d1d1b;}</style></defs><title>logo</title><path class="cls-1" d="M25.58,76.4h2.29q12.73,0,21.63,12.27c1.38,2.19,2.08,3.58,2.08,4.16-3.43,1.53-5.38,2.29-5.83,2.29q-7-12.27-18.3-12.27H26.21q-12,0-16,8.94l-.62,3.33q0,8.22,10.19,11.65,2.76.78,13.52,1.45a26.93,26.93,0,0,1,12.06,5.83q5.82,5.92,5.82,13.31,0,9.57-10.4,15.39a27.78,27.78,0,0,1-12.89,2.91H25.79q-11.91,0-20.8-11.23a25.26,25.26,0,0,1-5-14.56V119l.42-.42H6l.42.42v.21q0,12.38,13.1,18.72A26,26,0,0,0,27,139.21q12.42,0,16.43-9.15l.62-3.32q0-8.07-10.4-11.65-3.06-.78-13.52-1.46Q12,111.71,7.69,107q-4.58-5.52-4.57-11.44,0-12.95,15.39-18.3a36.13,36.13,0,0,1,7.07-.84"/><polygon class="cls-1" points="57.86 76.4 111.31 76.4 111.73 76.82 111.73 82.44 111.31 82.85 87.81 82.85 87.81 145.25 87.39 145.66 81.78 145.66 81.36 145.25 81.36 82.85 57.86 82.85 57.44 82.44 57.44 76.82 57.86 76.4"/><path class="cls-1" d="M125.13,76.4h5.62l.41.42v40.35q7-6.87,11.86-7.91,2.7-1.24,13.31-1.87a20.84,20.84,0,0,0,10.81-6.86,24,24,0,0,0,4.79-14.14V76.82l.41-.42H178l.41.42V87.43q0,13.93-12.48,22.67l-1.66.83v.21q8.52,3.94,13.1,15.39a31.55,31.55,0,0,1,1,6.65v12.07l-.41.41h-5.62l-.41-.41v-11q0-12.52-13.31-18.72a22.42,22.42,0,0,0-7.29-1.24q-11.37,0-18.09,11.44a22.39,22.39,0,0,0-2.08,9.77v9.78l-.41.41h-5.62l-.42-.41V76.82Z"/><path class="cls-1" d="M84.73,0a17.24,17.24,0,0,1,2.33,3.12c4.53,10,9,20.12,13.42,30.19.29.64.61,1.27,1,2.2,3.19-2.42,6.26-4.72,9.31-7q6.36-4.84,12.68-9.71c1.17-.9,2.59-2,3.74-.59a4.29,4.29,0,0,1,.31,3.61c-4.94,13-10,26-15,39A3.2,3.2,0,0,1,109,63.17q-24.81-.08-49.6,0a3.21,3.21,0,0,1-3.5-2.41c-4.8-12.58-9.7-25.12-14.57-37.67-.28-.72-.67-1.39-1-2.09V18.61c1.56-1.33,3-1.27,4.62.08,3.66,3,7.45,5.92,11.19,8.86,3.52,2.77,7.05,5.52,10.69,8.37,4.94-11.13,9.73-22,14.6-32.81A17.53,17.53,0,0,1,83.78,0Zm23.7,58.7,12.11-31.34c-6.11,4.09-11.78,8.42-17.46,12.75-2.75,2.09-3.77,1.84-5.16-1.3Q91.59,24.59,85.28,10.36c-.27-.61-.61-1.19-1.06-2.07-.56,1.17-1,2-1.35,2.85q-6.3,14.24-12.59,28.48c-1.19,2.68-2.39,3-4.74,1.19-1.32-1-2.62-2.06-3.93-3.09L48.31,27.26C51.9,37.56,55.77,47.6,59.73,57.6a2.22,2.22,0,0,0,1.72,1.06c15.57.05,31.14,0,47,0"/><path class="cls-1" d="M84.24,71.47q-12.27,0-24.55,0c-1.66,0-3.13-.26-3.14-2.33,0-1.9,1.27-2.32,2.9-2.31,7.63,0,15.26,0,22.89,0,8.9,0,17.8,0,26.7,0,2.16,0,3.25,1.08,2.89,2.77s-1.7,1.86-3.13,1.86H84.24"/></svg>