<svg id="Camada_1" data-name="Camada 1" xmlns="http://www.w3.org/2000/svg" viewBox="0 0 187.27 168.9"><defs><style>.cls-1{fill:#fff;}</style></defs><title>logo-full</title><path class="cls-1" d="M3.05,166l-2.91.46L0,166.33v-1l2.92-.43.13.13Z"/><path class="cls-1" d="M11.64,161.2l-.27,1.43-.25.1a3.84,3.84,0,0,0-.86-.47,2.4,2.4,0,0,0-.81-.17,1.13,1.13,0,0,0-.79.27.79.79,0,0,0-.29.6.64.64,0,0,0,.12.38,1.06,1.06,0,0,0,.32.31,3.74,3.74,0,0,0,.46.27c.17.09.35.18.54.26l.58.28a3.84,3.84,0,0,1,.54.35,3.19,3.19,0,0,1,.47.42,1.59,1.59,0,0,1,.31.54,1.92,1.92,0,0,1,.12.69,2.23,2.23,0,0,1-.21.95,2.44,2.44,0,0,1-.59.77,2.83,2.83,0,0,1-.94.52,3.67,3.67,0,0,1-1.22.19,5.88,5.88,0,0,1-2.35-.5l.24-1.55.19-.09A3.65,3.65,0,0,0,8,167.4a2.77,2.77,0,0,0,1,.23,1.26,1.26,0,0,0,.84-.26.82.82,0,0,0,.3-.63.72.72,0,0,0-.12-.4,1.08,1.08,0,0,0-.32-.32,4.45,4.45,0,0,0-.45-.27l-.55-.26-.57-.28a3.87,3.87,0,0,1-.55-.34,2.59,2.59,0,0,1-.46-.41,1.8,1.8,0,0,1-.32-.54,1.92,1.92,0,0,1-.11-.69,2.24,2.24,0,0,1,.8-1.73,2.83,2.83,0,0,1,.92-.52,3.74,3.74,0,0,1,1.18-.18A5.17,5.17,0,0,1,11.64,161.2Z"/><path class="cls-1" d="M22.54,168.79H20.86l.1-2.35,0-.93-1.78,0-1.61,0v.76l.07,2.51H16l.08-2.35L16,160.89h1.69l-.06,3.25,1.69,0,1.65,0-.06-3.25h1.7l-.1,5.39Z"/><path class="cls-1" d="M31.73,168.79l-.19-1-.21-.74-1.54,0-1.37,0-.2.65L28,168.79H26.36l2.68-7.9h2l2.42,7.9ZM30,162.45h-.11l-1.08,3.28,1.06,0,1.06,0Z"/><path class="cls-1" d="M43.37,168.39l0,.19a5.89,5.89,0,0,1-1.63.32l-.17-.12c-.56-1-1-1.86-1.43-2.65H38.92v.15l.07,2.51H37.33l.08-2.35-.08-5.55h3a2.72,2.72,0,0,1,1.91.61,2.17,2.17,0,0,1,.68,1.73,2.66,2.66,0,0,1-.38,1.39,3,3,0,0,1-1.09,1C42.09,166.63,42.72,167.55,43.37,168.39Zm-3.21-3.5a1.45,1.45,0,0,0,1-1.51,1.2,1.2,0,0,0-.34-.94,1.56,1.56,0,0,0-1-.33l-.84,0-.05,2.69Z"/><path class="cls-1" d="M49,168.79H47.31l.08-2.35-.08-5.55H49l-.1,5.39Z"/><path class="cls-1" d="M60.25,168.79H58.46l-3.21-5.35h-.11l0,2.62.07,2.73H53.67l.08-2.33-.07-5.57h1.79l3.2,5.34h.12l0-5.27,1.54-.09-.1,5.47Z"/><path class="cls-1" d="M70.74,161.27l-.36,1.49-.15,0a5.63,5.63,0,0,0-1.08-.51,3.29,3.29,0,0,0-1-.15,2.33,2.33,0,0,0-1.19.28,1.66,1.66,0,0,0-.68.89,4.78,4.78,0,0,0-.23,1.61,4.48,4.48,0,0,0,.22,1.57,1.57,1.57,0,0,0,.66.84,2.47,2.47,0,0,0,1.21.25,3.66,3.66,0,0,0,1-.16l0-.68,0-1.22,1.53-.12,0,1.08,0,1.93a8.72,8.72,0,0,1-2.71.48,3.58,3.58,0,0,1-2.76-1A4.09,4.09,0,0,1,64.3,165a4.29,4.29,0,0,1,1.07-3.13,4.1,4.1,0,0,1,3-1.08A5.59,5.59,0,0,1,70.74,161.27Z"/><path class="cls-1" d="M84.51,162.26,83,162.19h-.49l-.06,4.09.07,2.51H80.89l.08-2.35-.06-4.25h-.49l-1.51.07-.11-.13.11-1.24h5.6l.1.14Z"/><path class="cls-1" d="M95.09,168.79H93.4l.1-2.35v-.93l-1.79,0-1.61,0v.76l.07,2.51H88.49l.08-2.35-.08-5.55h1.69l-.06,3.25,1.69,0,1.65,0-.06-3.25h1.71l-.1,5.39Z"/><path class="cls-1" d="M104.83,167.54l-.11,1.25h-5l.08-2.35-.08-5.55h5l.11.14-.13,1.23-1.88-.06h-1.43l0,1.91,1.35,0,1.29,0,.1.11-.11,1.24-1.4,0h-1.26v.84l0,1.19,1.38,0,2-.07Z"/><path class="cls-1" d="M116.62,164.62c1,1.33,2,2.61,3,3.83l0,.17a10.61,10.61,0,0,1-1.63.28l-.19-.09q-1.74-2.34-2.85-4.09l0,1.56.06,2.51h-1.67l.1-2.35-.1-5.55H115l-.06,3.66,2.21-2.9.45-.76h1.8Z"/><path class="cls-1" d="M124.91,168.79h-1.66l.08-2.35-.08-5.55h1.68l-.09,5.39Z"/><path class="cls-1" d="M136.2,168.79h-1.79l-3.22-5.35h-.1l0,2.62.07,2.73h-1.52l.08-2.33-.06-5.57h1.78l3.21,5.34h.12l-.05-5.27,1.54-.09-.11,5.47Z"/><path class="cls-1" d="M146.7,161.27l-.36,1.49-.15,0a5.63,5.63,0,0,0-1.08-.51,3.29,3.29,0,0,0-1-.15,2.3,2.3,0,0,0-1.19.28,1.66,1.66,0,0,0-.68.89,4.78,4.78,0,0,0-.23,1.61,4.48,4.48,0,0,0,.22,1.57,1.57,1.57,0,0,0,.66.84,2.47,2.47,0,0,0,1.21.25,3.66,3.66,0,0,0,1-.16l0-.68,0-1.22,1.53-.12,0,1.08,0,1.93a8.72,8.72,0,0,1-2.71.48,3.58,3.58,0,0,1-2.76-1,4.09,4.09,0,0,1-.93-2.88,4.29,4.29,0,0,1,1.07-3.13,4.1,4.1,0,0,1,3-1.08A5.62,5.62,0,0,1,146.7,161.27Z"/><path class="cls-1" d="M154.12,160.84a3.47,3.47,0,0,1,2.63,1,3.8,3.8,0,0,1,.92,2.74,4.54,4.54,0,0,1-1,3.21,3.76,3.76,0,0,1-2.94,1.12c-.89,0-1.81,0-2.76-.08l.09-2.35-.09-5.55Zm1.82,4.08a3.67,3.67,0,0,0-.47-2.09,1.7,1.7,0,0,0-1.47-.67c-.44,0-.9,0-1.39.06l-.07,4.06,0,1.22c.57.05,1,.08,1.42.08C155.29,167.58,155.94,166.7,155.94,164.92Z"/><path class="cls-1" d="M167.41,161.79a4.21,4.21,0,0,1,.91,2.88,4.57,4.57,0,0,1-1,3.13,3.51,3.51,0,0,1-2.77,1.1,3.22,3.22,0,0,1-2.56-1,4.28,4.28,0,0,1-.91-2.93,4.42,4.42,0,0,1,1-3.07,3.53,3.53,0,0,1,2.76-1.09A3.28,3.28,0,0,1,167.41,161.79Zm-4.14,1a3.43,3.43,0,0,0-.44,2,6,6,0,0,0,.2,1.7,1.64,1.64,0,0,0,.6.92,1.83,1.83,0,0,0,1.07.29,1.64,1.64,0,0,0,1.43-.61,3.56,3.56,0,0,0,.44-2,5.81,5.81,0,0,0-.19-1.67,1.7,1.7,0,0,0-.61-.92,1.92,1.92,0,0,0-1.08-.28A1.63,1.63,0,0,0,163.27,162.74Z"/><path class="cls-1" d="M179.1,168.79,179,166.4l-.28-3h-.12l-1.76,4.6h-1.29l-1.61-4.6h-.12l-.29,2.87-.17,2.56h-1.4l.79-7.9h1.92l.31,1.17,1.26,3.73h.1l1.31-3.73.36-1.17h1.88l.71,7.9Z"/><path class="cls-1" d="M187.27,166l-2.91.46-.14-.14v-1l2.92-.43.13.13Z"/><path class="cls-1" d="M30,76.4h2.29Q45.06,76.4,54,88.67C55.33,90.86,56,92.25,56,92.83q-5.14,2.3-5.83,2.29-7-12.27-18.3-12.27H30.66q-12,0-16,8.94L14,95.12q0,8.22,10.19,11.65,2.76.78,13.52,1.45a26.87,26.87,0,0,1,12.06,5.83q5.82,5.92,5.82,13.31,0,9.57-10.4,15.39a27.78,27.78,0,0,1-12.89,2.91H30.24q-11.91,0-20.8-11.23a25.26,25.26,0,0,1-5-14.56V119l.42-.42h5.61l.42.42v.21Q10.9,131.63,24,138a26,26,0,0,0,7.49,1.24q12.42,0,16.43-9.15l.62-3.32q0-8.07-10.4-11.65-3.06-.78-13.52-1.46-8.16-1.92-12.48-6.65-4.58-5.52-4.57-11.44Q7.57,82.6,23,77.24A36.13,36.13,0,0,1,30,76.4"/><polygon class="cls-1" points="62.31 76.4 115.76 76.4 116.18 76.82 116.18 82.44 115.76 82.85 92.26 82.85 92.26 145.25 91.84 145.66 86.23 145.66 85.81 145.25 85.81 82.85 62.31 82.85 61.89 82.44 61.89 76.82 62.31 76.4"/><path class="cls-1" d="M129.58,76.4h5.62l.41.42v40.35q7-6.87,11.86-7.91,2.7-1.24,13.31-1.87a20.84,20.84,0,0,0,10.81-6.86,24,24,0,0,0,4.79-14.14V76.82l.41-.42h5.62l.41.42V87.43q0,13.93-12.48,22.67l-1.66.83v.21q8.52,3.94,13.1,15.39a31.55,31.55,0,0,1,1,6.65v12.07l-.41.41h-5.62l-.41-.41v-11q0-12.52-13.31-18.72a22.42,22.42,0,0,0-7.29-1.24q-11.37,0-18.09,11.44a22.39,22.39,0,0,0-2.08,9.77v9.78l-.41.41h-5.62l-.42-.41V76.82Z"/><path class="cls-1" d="M89.18,0a17.78,17.78,0,0,1,2.34,3.12c4.52,10,9,20.12,13.41,30.19.29.64.61,1.27,1,2.2,3.19-2.42,6.26-4.72,9.31-7q6.36-4.84,12.68-9.71c1.17-.9,2.59-2,3.74-.59a4.29,4.29,0,0,1,.31,3.61c-4.94,13-10,26-15,39a3.2,3.2,0,0,1-3.53,2.37q-24.81-.08-49.6,0a3.21,3.21,0,0,1-3.5-2.41c-4.8-12.58-9.7-25.12-14.57-37.67-.28-.72-.67-1.39-1-2.09V18.61c1.56-1.33,3-1.27,4.62.08,3.66,3,7.45,5.92,11.19,8.86,3.52,2.77,7,5.52,10.69,8.37,4.94-11.13,9.73-22,14.6-32.81A17.53,17.53,0,0,1,88.23,0Zm23.7,58.7L125,27.36c-6.11,4.09-11.78,8.42-17.46,12.75-2.74,2.09-3.77,1.84-5.16-1.3Q96,24.59,89.73,10.36c-.27-.61-.61-1.19-1.06-2.07-.56,1.17-1,2-1.35,2.85Q81,25.38,74.73,39.62c-1.19,2.68-2.39,3-4.74,1.19-1.32-1-2.62-2.06-3.93-3.09L52.76,27.26c3.59,10.3,7.46,20.34,11.42,30.34a2.22,2.22,0,0,0,1.72,1.06c15.57.05,31.14,0,47,0"/><path class="cls-1" d="M88.69,71.47q-12.27,0-24.55,0c-1.66,0-3.13-.26-3.14-2.33,0-1.9,1.27-2.32,2.9-2.31,7.63,0,15.26,0,22.89,0,8.9,0,17.8,0,26.7,0,2.16,0,3.25,1.08,2.89,2.77s-1.7,1.86-3.13,1.86H88.69"/></svg>