<svg id="Camada_1" height="100%" width="100%" data-name="Camada 1" xmlns="http://www.w3.org/2000/svg" viewBox="0 0 112.01 139.31"><defs><style>.cls-1{fill:transparent;}.cls-2{fill:#fff;}.cls-3{fill:none;stroke:#fff;stroke-miterlimit:10;stroke-width:0.75px;}</style></defs><title>icones-03</title><rect class="cls-1" width="112.01" height="139.31" rx="10.67"/><path class="cls-2" d="M101.47,66.65a1,1,0,0,0-.12.23A1.26,1.26,0,0,1,99.88,68c-.8-.08-1.12-.69-1.22-1.42-.13-1.08-.16-2.19-.38-3.25-.48-2.28-1.06-4.53-1.58-6.8-.11-.49-.38-.61-.85-.71-3-.63-6.1-1.13-9.06-2-3.57-1.09-6.4-5.14-5.27-9.15a7.22,7.22,0,0,0-.34-4.08c-.37-1.27-.64-2.57-.94-3.86a1.07,1.07,0,0,1,0-.61c.45-1.17-.17-1.71-1.1-2.29a42.77,42.77,0,0,0-43.9-1.34c-.1.06-.19.14-.29.21a11.27,11.27,0,0,0,5.82,1.54c3-.16,6,0,9.06,0a1.27,1.27,0,0,1,1.42,1,1.21,1.21,0,0,1-.7,1.46,1.71,1.71,0,0,1-.77.15c-3.82,0-7.64,0-11.46,0a4.68,4.68,0,0,1-1.61-.42c-1.37-.54-2.71-1.16-4.08-1.7a1.14,1.14,0,0,0-1,0c-1.92,1.47-3.79,3-5.92,4.7A24.45,24.45,0,0,1,27.59,41a6.44,6.44,0,0,1,1.3,7.68,3.93,3.93,0,0,0,0,4,53.07,53.07,0,0,1,2.21,4.92,1.22,1.22,0,0,0,1.37.91c1.56-.06,3.13-.06,4.7,0a2.74,2.74,0,0,1,3,2.36c.66,3,1.32,5.93,2,8.9a1.16,1.16,0,0,0,.84,1q4.39,1.62,8.78,3.3a8.6,8.6,0,0,1,5.83,8.2c0,1.38-.13,2.77-.15,4.16a3.61,3.61,0,0,0,2.63,3.85c1.32.51,2.65,1,4,1.49A2.63,2.63,0,0,1,66,94.59c0,1.27,0,2.54,0,3.81a7.12,7.12,0,0,1-.31,1.9A44.47,44.47,0,0,1,64,104.89c-1,2.21-.81,4.49-.74,6.89,1.52-.33,2.95-.32,4.07-1.74,3.68-4.63,7.52-9.14,11.31-13.68a4.93,4.93,0,0,0,1.16-3.17c0-1,.06-2,.13-2.92a2.31,2.31,0,0,1,1.56-2c1.16-.5,2.31-1,3.47-1.55a3.05,3.05,0,0,0,1.87-2.1,1.32,1.32,0,0,0-1.36-1.84h-1a2.9,2.9,0,0,1-2.86-1.71c-1-2-2.08-3.92-3-5.9A4.44,4.44,0,0,0,74.2,72.5c-2.28,0-4.56,0-6.84,0a3.7,3.7,0,0,0-2.45.87c-2.5,2-4.51,2.16-7.29.46-2-1.22-4-2.47-6-3.66A3.13,3.13,0,0,1,50,67.24c0-1.36,0-2.72,0-4.08a2.74,2.74,0,0,1,2.95-3c1.12,0,2.25,0,3.37,0A3,3,0,0,1,59,61.56c.29.44.64.84,1,1.33.2-.33.37-.6.52-.87,1.58-2.94,3.2-5.86,4.73-8.83a3.24,3.24,0,0,1,3.27-1.94c.8,0,1.6,0,2.54,0V47.62c0-1.85.52-2.6,2.3-3.3-2.27-1.52-4.51-3-6.75-4.49-.46-.31-1-.59-1.42-.91A11.47,11.47,0,0,0,58,36.81a16.65,16.65,0,0,1-1.87,0,1.39,1.39,0,0,1-1.32-1.31,1.36,1.36,0,0,1,1.29-1.34c3.7-.24,7.23.16,10.4,2.38,2.74,1.92,5.58,3.68,8.38,5.5a2.69,2.69,0,0,1,1.49,2.62A2.53,2.53,0,0,1,74.3,47c-.2.05-.41.47-.42.72,0,1.06,0,2.13,0,3.2C73.84,53,72.8,54,70.72,54c-.91,0-2-.28-2.69.13s-1,1.51-1.39,2.31c-1.33,2.48-2.64,4.95-4,7.42s-3.45,2.53-5,.36A2.61,2.61,0,0,0,55,62.86a15.61,15.61,0,0,1-2.18,0c0,1.57,0,3.09,0,4.61,0,.17.28.36.47.48,2,1.26,4.06,2.53,6.11,3.77a2.66,2.66,0,0,0,3.51-.22A7,7,0,0,1,68,69.82c2.22.08,4.44,0,6.66,0a6.58,6.58,0,0,1,6.18,3.73c1,1.9,2,3.82,3,5.74A1.18,1.18,0,0,0,85,80.1a4.07,4.07,0,0,1,4.3,5.66,5.28,5.28,0,0,1-2.62,3.11,29.69,29.69,0,0,1-3.14,1.44c-.8.3-1.22.72-1,1.62a7.85,7.85,0,0,1,0,1,8.25,8.25,0,0,1-2.32,5.85c-2.83,3.27-5.54,6.63-8.3,10a1.54,1.54,0,0,0-.38.8c.81-.34,1.64-.65,2.44-1A42.88,42.88,0,0,0,94.7,87.9a39.28,39.28,0,0,0,3.77-13.39c0-.38.13-.76.16-1.14.11-1.2.43-1.67,1.22-1.78,1-.15,1.33.54,1.62,1.27V73c0,.23-.13.45-.17.68-.27,1.83-.42,3.7-.81,5.51a44.78,44.78,0,0,1-15.93,25.86A44.08,44.08,0,0,1,64,114.42c-1.59.28-3.19.48-4.8.71H53a4.22,4.22,0,0,0-.77-.16,42,42,0,0,1-9.8-1.9,45.08,45.08,0,0,1-25-19.53,42.68,42.68,0,0,1-6.29-17.61c-.24-1.85-.36-3.7-.54-5.55V69.13a11,11,0,0,0,.16-1.39A40.09,40.09,0,0,1,12,58.55,44.25,44.25,0,0,1,29.45,33a45.8,45.8,0,0,1,19.6-8.16,43.34,43.34,0,0,1,13.78-.11A44.28,44.28,0,0,1,83.1,33.23a44.76,44.76,0,0,1,17.66,28.44c.3,1.58.48,3.2.71,4.8Zm-41,45.51c0-.36,0-.68,0-1a16.81,16.81,0,0,1,1.5-8.53,15.12,15.12,0,0,0,1.31-7.5c0-.51-.14-.78-.65-1-1.28-.44-2.56-.9-3.82-1.42A6.06,6.06,0,0,1,54.74,87a25.38,25.38,0,0,1,.07-3.9,6,6,0,0,0-4.12-6.46c-3-1.08-6-2.28-9-3.4a2.94,2.94,0,0,1-2.07-2.32c-.08-.43-.19-.86-.28-1.3-.61-2.75-1.22-5.5-1.82-8.28-1.89,0-3.69,0-5.49,0a3,3,0,0,1-3.06-2,57.14,57.14,0,0,0-2.53-5.57,5.55,5.55,0,0,1,0-6.13,3.65,3.65,0,0,0-.4-4.32,23.5,23.5,0,0,0-1.81-1.93,42.62,42.62,0,0,0,36.28,70.75M83.12,36.71l-.23.1c.28,1,.52,2,.86,2.92a10,10,0,0,1,.37,5.73A4.44,4.44,0,0,0,85.69,50a6.83,6.83,0,0,0,3.38,1.61c2.06.41,4.1.93,6.32,1.44A42.88,42.88,0,0,0,83.12,36.71"/><path class="cls-3" d="M101.47,66.65a1,1,0,0,0-.12.23A1.26,1.26,0,0,1,99.88,68c-.8-.08-1.12-.69-1.22-1.42-.13-1.08-.16-2.19-.38-3.25-.48-2.28-1.06-4.53-1.58-6.8-.11-.49-.38-.61-.85-.71-3-.63-6.1-1.13-9.06-2-3.57-1.09-6.4-5.14-5.27-9.15a7.22,7.22,0,0,0-.34-4.08c-.37-1.27-.64-2.57-.94-3.86a1.07,1.07,0,0,1,0-.61c.45-1.17-.17-1.71-1.1-2.29a42.77,42.77,0,0,0-43.9-1.34c-.1.06-.19.14-.29.21a11.27,11.27,0,0,0,5.82,1.54c3-.16,6,0,9.06,0a1.27,1.27,0,0,1,1.42,1,1.21,1.21,0,0,1-.7,1.46,1.71,1.71,0,0,1-.77.15c-3.82,0-7.64,0-11.46,0a4.68,4.68,0,0,1-1.61-.42c-1.37-.54-2.71-1.16-4.08-1.7a1.14,1.14,0,0,0-1,0c-1.92,1.47-3.79,3-5.92,4.7A24.45,24.45,0,0,1,27.59,41a6.44,6.44,0,0,1,1.3,7.68,3.93,3.93,0,0,0,0,4,53.07,53.07,0,0,1,2.21,4.92,1.22,1.22,0,0,0,1.37.91c1.56-.06,3.13-.06,4.7,0a2.74,2.74,0,0,1,3,2.36c.66,3,1.32,5.93,2,8.9a1.16,1.16,0,0,0,.84,1q4.39,1.62,8.78,3.3a8.6,8.6,0,0,1,5.83,8.2c0,1.38-.13,2.77-.15,4.16a3.61,3.61,0,0,0,2.63,3.85c1.32.51,2.65,1,4,1.49A2.63,2.63,0,0,1,66,94.59c0,1.27,0,2.54,0,3.81a7.12,7.12,0,0,1-.31,1.9A44.47,44.47,0,0,1,64,104.89c-1,2.21-.81,4.49-.74,6.89,1.52-.33,2.95-.32,4.07-1.74,3.68-4.63,7.52-9.14,11.31-13.68a4.93,4.93,0,0,0,1.16-3.17c0-1,.06-2,.13-2.92a2.31,2.31,0,0,1,1.56-2c1.16-.5,2.31-1,3.47-1.55a3.05,3.05,0,0,0,1.87-2.1,1.32,1.32,0,0,0-1.36-1.84h-1a2.9,2.9,0,0,1-2.86-1.71c-1-2-2.08-3.92-3-5.9A4.44,4.44,0,0,0,74.2,72.5c-2.28,0-4.56,0-6.84,0a3.7,3.7,0,0,0-2.45.87c-2.5,2-4.51,2.16-7.29.46-2-1.22-4-2.47-6-3.66A3.13,3.13,0,0,1,50,67.24c0-1.36,0-2.72,0-4.08a2.74,2.74,0,0,1,2.95-3c1.12,0,2.25,0,3.37,0A3,3,0,0,1,59,61.56c.29.44.64.84,1,1.33.2-.33.37-.6.52-.87,1.58-2.94,3.2-5.86,4.73-8.83a3.24,3.24,0,0,1,3.27-1.94c.8,0,1.6,0,2.54,0V47.62c0-1.85.52-2.6,2.3-3.3-2.27-1.52-4.51-3-6.75-4.49-.46-.31-1-.59-1.42-.91A11.47,11.47,0,0,0,58,36.81a16.65,16.65,0,0,1-1.87,0,1.39,1.39,0,0,1-1.32-1.31,1.36,1.36,0,0,1,1.29-1.34c3.7-.24,7.23.16,10.4,2.38,2.74,1.92,5.58,3.68,8.38,5.5a2.69,2.69,0,0,1,1.49,2.62A2.53,2.53,0,0,1,74.3,47c-.2.05-.41.47-.42.72,0,1.06,0,2.13,0,3.2C73.84,53,72.8,54,70.72,54c-.91,0-2-.28-2.69.13s-1,1.51-1.39,2.31c-1.33,2.48-2.64,4.95-4,7.42s-3.45,2.53-5,.36A2.61,2.61,0,0,0,55,62.86a15.61,15.61,0,0,1-2.18,0c0,1.57,0,3.09,0,4.61,0,.17.28.36.47.48,2,1.26,4.06,2.53,6.11,3.77a2.66,2.66,0,0,0,3.51-.22A7,7,0,0,1,68,69.82c2.22.08,4.44,0,6.66,0a6.58,6.58,0,0,1,6.18,3.73c1,1.9,2,3.82,3,5.74A1.18,1.18,0,0,0,85,80.1a4.07,4.07,0,0,1,4.3,5.66,5.28,5.28,0,0,1-2.62,3.11,29.69,29.69,0,0,1-3.14,1.44c-.8.3-1.22.72-1,1.62a7.85,7.85,0,0,1,0,1,8.25,8.25,0,0,1-2.32,5.85c-2.83,3.27-5.54,6.63-8.3,10a1.54,1.54,0,0,0-.38.8c.81-.34,1.64-.65,2.44-1A42.88,42.88,0,0,0,94.7,87.9a39.28,39.28,0,0,0,3.77-13.39c0-.38.13-.76.16-1.14.11-1.2.43-1.67,1.22-1.78,1-.15,1.33.54,1.62,1.27V73c0,.23-.13.45-.17.68-.27,1.83-.42,3.7-.81,5.51a44.78,44.78,0,0,1-15.93,25.86A44.08,44.08,0,0,1,64,114.42c-1.59.28-3.19.48-4.8.71H53a4.22,4.22,0,0,0-.77-.16,42,42,0,0,1-9.8-1.9,45.08,45.08,0,0,1-25-19.53,42.68,42.68,0,0,1-6.29-17.61c-.24-1.85-.36-3.7-.54-5.55V69.13a11,11,0,0,0,.16-1.39A40.09,40.09,0,0,1,12,58.55,44.25,44.25,0,0,1,29.45,33a45.8,45.8,0,0,1,19.6-8.16,43.34,43.34,0,0,1,13.78-.11A44.28,44.28,0,0,1,83.1,33.23a44.76,44.76,0,0,1,17.66,28.44c.3,1.58.48,3.2.71,4.8Zm-41,45.51c0-.36,0-.68,0-1a16.81,16.81,0,0,1,1.5-8.53,15.12,15.12,0,0,0,1.31-7.5c0-.51-.14-.78-.65-1-1.28-.44-2.56-.9-3.82-1.42A6.06,6.06,0,0,1,54.74,87a25.38,25.38,0,0,1,.07-3.9,6,6,0,0,0-4.12-6.46c-3-1.08-6-2.28-9-3.4a2.94,2.94,0,0,1-2.07-2.32c-.08-.43-.19-.86-.28-1.3-.61-2.75-1.22-5.5-1.82-8.28-1.89,0-3.69,0-5.49,0a3,3,0,0,1-3.06-2,57.14,57.14,0,0,0-2.53-5.57,5.55,5.55,0,0,1,0-6.13,3.65,3.65,0,0,0-.4-4.32,23.5,23.5,0,0,0-1.81-1.93,42.62,42.62,0,0,0,36.28,70.75ZM83.12,36.71l-.23.1c.28,1,.52,2,.86,2.92a10,10,0,0,1,.37,5.73A4.44,4.44,0,0,0,85.69,50a6.83,6.83,0,0,0,3.38,1.61c2.06.41,4.1.93,6.32,1.44A42.88,42.88,0,0,0,83.12,36.71Z"/></svg>