<svg id="Camada_1" data-name="Camada 1" xmlns="http://www.w3.org/2000/svg" viewBox="0 0 261.62 11.34"><defs><style>.cls-1{fill:#1d1d1b;}</style></defs><title>texto-maior</title><path class="cls-1" d="M4.26,7.31.2,7.94,0,7.75V6.33l4.08-.61.18.18Z"/><path class="cls-1" d="M16.26.58l-.38,2-.35.14a5.47,5.47,0,0,0-1.2-.66,3.44,3.44,0,0,0-1.13-.23,1.58,1.58,0,0,0-1.1.37,1.1,1.1,0,0,0-.41.84.93.93,0,0,0,.17.53A1.54,1.54,0,0,0,12.3,4a7.27,7.27,0,0,0,.64.37l.77.37c.27.12.53.25.8.39a5.52,5.52,0,0,1,.77.48,4.52,4.52,0,0,1,.64.59,2.34,2.34,0,0,1,.45.75,3,3,0,0,1-.14,2.29,3.1,3.1,0,0,1-.82,1.08,4,4,0,0,1-1.31.73,5.2,5.2,0,0,1-1.71.27,8.41,8.41,0,0,1-3.27-.7l.32-2.16.26-.13a5.33,5.33,0,0,0,1.49.91,4.15,4.15,0,0,0,1.45.32,1.75,1.75,0,0,0,1.18-.37,1.15,1.15,0,0,0,.42-.89,1,1,0,0,0-.17-.54,1.74,1.74,0,0,0-.44-.46A5.41,5.41,0,0,0,13,6.94l-.76-.37q-.4-.18-.81-.39a4.58,4.58,0,0,1-.76-.47A4,4,0,0,1,10,5.13a2.24,2.24,0,0,1-.45-.75,2.69,2.69,0,0,1-.16-1,3,3,0,0,1,.3-1.34A3.37,3.37,0,0,1,10.53,1,4,4,0,0,1,11.82.28,4.92,4.92,0,0,1,13.47,0,7.17,7.17,0,0,1,16.26.58Z"/><path class="cls-1" d="M31.49,11.18H29.14l.14-3.29,0-1.28-2.49,0-2.24,0,0,1.06.1,3.5H22.28l.11-3.29L22.28.15h2.36l-.08,4.54,2.36,0,2.3,0L29.14.15h2.38l-.14,7.53Z"/><path class="cls-1" d="M44.32,11.18l-.26-1.44-.29-1-2.16-.06-1.9.06-.29.91-.29,1.55h-2.3l3.73-11h2.76l3.38,11ZM42,2.33h-.16l-1.5,4.58,1.47,0,1.48,0Z"/><path class="cls-1" d="M60.58,10.63l0,.25a8.18,8.18,0,0,1-2.27.46L58,11.16c-.79-1.36-1.45-2.59-2-3.69H54.37v.21l.1,3.5H52.15l.11-3.29L52.15.15h4.22A3.89,3.89,0,0,1,59,1,3.1,3.1,0,0,1,60,3.4a3.67,3.67,0,0,1-.54,1.95,4.13,4.13,0,0,1-1.52,1.44Q59.24,8.86,60.58,10.63ZM56.1,5.73a2,2,0,0,0,1.46-2.1,1.66,1.66,0,0,0-.48-1.31,2.15,2.15,0,0,0-1.44-.47l-1.17.06L54.4,5.67Z"/><path class="cls-1" d="M68.41,11.18H66.09l.11-3.29L66.09.15h2.36l-.14,7.53Z"/><path class="cls-1" d="M84.17,11.18H81.66L77.18,3.71H77l0,3.66.09,3.81H75l.11-3.26L75,.15h2.5L82,7.61h.15L82.06.25,84.21.11l-.14,7.66Z"/><path class="cls-1" d="M98.83.68l-.51,2.09-.22,0a7.49,7.49,0,0,0-1.5-.7,4.62,4.62,0,0,0-1.41-.21,3.24,3.24,0,0,0-1.66.38,2.34,2.34,0,0,0-1,1.25,6.63,6.63,0,0,0-.32,2.25A6.48,6.48,0,0,0,92.56,8a2.14,2.14,0,0,0,.93,1.17,3.38,3.38,0,0,0,1.68.36,4.94,4.94,0,0,0,1.46-.24l0-.95,0-1.69,2.14-.17L98.71,8l.06,2.69a12.16,12.16,0,0,1-3.78.68,5,5,0,0,1-3.87-1.4,5.76,5.76,0,0,1-1.29-4,6,6,0,0,1,1.49-4.37A5.73,5.73,0,0,1,95.58,0,7.77,7.77,0,0,1,98.83.68Z"/><path class="cls-1" d="M118.06,2.06,116,2h-.68l-.08,5.71.1,3.5H113l.11-3.29L113,2h-.69l-2.11.09-.15-.18.15-1.73h7.83l.13.19Z"/><path class="cls-1" d="M132.83,11.18h-2.35l.14-3.29,0-1.28-2.5,0-2.24,0,0,1.06.1,3.5h-2.32l.11-3.29L123.62.15H126l-.08,4.54,2.36,0,2.31,0L130.48.15h2.38l-.14,7.53Z"/><path class="cls-1" d="M146.45,9.45l-.16,1.73h-6.92l.12-3.29L139.37.15h7l.14.19-.17,1.72L143.68,2l-2,0,0,2.66,1.89,0,1.8-.05.14.17-.15,1.73-2,0-1.76,0V7.68l.05,1.67h1.94l2.71-.1Z"/><path class="cls-1" d="M162.92,5.36q2,2.79,4.22,5.34l0,.25a17.23,17.23,0,0,1-2.27.39l-.27-.13c-1.62-2.17-2.94-4.07-4-5.7l0,2.17.09,3.5h-2.33l.13-3.29L158.31.15h2.36l-.09,5.11,3.09-4,.62-1.06h2.53Z"/><path class="cls-1" d="M174.49,11.18h-2.32l.11-3.29L172.17.15h2.36l-.14,7.53Z"/><path class="cls-1" d="M190.27,11.18h-2.51l-4.49-7.47h-.15l0,3.66.1,3.81h-2.12l.11-3.26L181.09.15h2.49l4.49,7.46h.15L188.15.25l2.16-.14-.15,7.66Z"/><path class="cls-1" d="M204.94.68l-.51,2.09-.21,0a7.54,7.54,0,0,0-1.51-.7,4.58,4.58,0,0,0-1.41-.21,3.2,3.2,0,0,0-1.65.38,2.35,2.35,0,0,0-1,1.25,6.63,6.63,0,0,0-.32,2.25,6.74,6.74,0,0,0,.3,2.19,2.14,2.14,0,0,0,.93,1.17,3.42,3.42,0,0,0,1.69.36,4.93,4.93,0,0,0,1.45-.24l0-.95,0-1.69,2.14-.17,0,1.51,0,2.69a12.11,12.11,0,0,1-3.78.68,5,5,0,0,1-3.86-1.4,5.71,5.71,0,0,1-1.3-4,6,6,0,0,1,1.5-4.37A5.69,5.69,0,0,1,201.69,0,7.77,7.77,0,0,1,204.94.68Z"/><path class="cls-1" d="M215.3.08A4.86,4.86,0,0,1,219,1.42a5.32,5.32,0,0,1,1.28,3.83,6.41,6.41,0,0,1-1.44,4.49,5.28,5.28,0,0,1-4.1,1.56c-1.25,0-2.54,0-3.85-.12L211,7.89,210.87.15Zm2.54,5.7a5.12,5.12,0,0,0-.66-2.93,2.36,2.36,0,0,0-2.05-.92c-.61,0-1.26,0-1.94.08l-.1,5.67,0,1.7c.8.08,1.46.12,2,.12Q217.85,9.5,217.84,5.78Z"/><path class="cls-1" d="M233.87,1.41a5.83,5.83,0,0,1,1.27,4,6.37,6.37,0,0,1-1.37,4.38,4.9,4.9,0,0,1-3.86,1.54,4.52,4.52,0,0,1-3.59-1.44,6.06,6.06,0,0,1-1.27-4.1,6.19,6.19,0,0,1,1.37-4.29A4.92,4.92,0,0,1,230.28,0,4.57,4.57,0,0,1,233.87,1.41Zm-5.78,1.32a4.79,4.79,0,0,0-.62,2.76,8,8,0,0,0,.28,2.37,2.3,2.3,0,0,0,.83,1.29,2.54,2.54,0,0,0,1.5.4,2.31,2.31,0,0,0,2-.86,4.93,4.93,0,0,0,.62-2.81,8.18,8.18,0,0,0-.27-2.33,2.37,2.37,0,0,0-.85-1.27,2.62,2.62,0,0,0-1.51-.4A2.29,2.29,0,0,0,228.09,2.73Z"/><path class="cls-1" d="M250.19,11.18,250,7.84l-.39-4.25h-.17L247,10h-1.8L243,3.59h-.16l-.42,4-.23,3.57h-2l1.11-11H244l.44,1.63L246.16,7h.15l1.83-5.22.49-1.63h2.63l1,11Z"/><path class="cls-1" d="M261.62,7.31l-4.07.63-.2-.19V6.33l4.08-.61.19.18Z"/></svg>