<svg id="Camada_1" data-name="Camada 1" xmlns="http://www.w3.org/2000/svg" viewBox="0 0 112.01 139.31"><defs><style>.cls-1{fill:transparent;}.cls-2{fill:#fff;}</style></defs><title>icones-01</title><rect class="cls-1" width="112.01" height="139.31" rx="10.67"/><path class="cls-2" d="M82.94,82.78a16.46,16.46,0,0,0-13,6.43L44.59,75.07a16.59,16.59,0,0,0,.91-5.43,16.16,16.16,0,0,0-.93-5.45L69.86,50.07a16.45,16.45,0,1,0-3.41-10,16.08,16.08,0,0,0,.94,5.45L42.12,59.63a16.46,16.46,0,1,0,0,20L67.45,93.76a16.21,16.21,0,0,0-1,5.49A16.47,16.47,0,1,0,82.94,82.78m0-54a11.31,11.31,0,1,1-11.3,11.31,11.32,11.32,0,0,1,11.3-11.31M29.07,80.94a11.31,11.31,0,1,1,11.31-11.3,11.31,11.31,0,0,1-11.31,11.3m53.87,29.6A11.31,11.31,0,1,1,94.25,99.23a11.32,11.32,0,0,1-11.31,11.31"/></svg>